# xmcd CD database file
#
# Track frame offsets:
#	150
#	12497
#	21937
#	32730
#	47815
#	60382
#	74212
#	97645
#	111480
#	126545
#	147782
#	167757
#	182832
#	195037
#	211587
#	222775
#	239390
#
# Disc length: 3482 seconds
#
# Revision: 0
# Processed by: cddbd v1.5.2PL0 Copyright (c) Steve Scherf et al.
# Submitted via: CDex 1.70beta2
#
DISCID=f10d9811
DTITLE=Plusieurs - World Music in The Netherland
DYEAR=1996
DGENRE=Salsa
TTITLE0=Dance a Cachucha
TTITLE1=El Rapido
TTITLE2=Los Delerios de Rosita
TTITLE3=Amalia
TTITLE4=Tango Jolandés
TTITLE5=Piano Merengues
TTITLE6=Muchas Gracias MR. Green
TTITLE7=Aura
TTITLE8=La Charreada
TTITLE9=Sabrosito Asi
TTITLE10=El Motivo
TTITLE11=Blue Bossa
TTITLE12=Marisela
TTITLE13=A la Antigua
TTITLE14=Cumbia Payasosa
TTITLE15=Blue Curaçao
TTITLE16=Donna Lee - A Cozar y Bailar
EXTD=YEAR: 1996
EXTT0=
EXTT1=
EXTT2=
EXTT3=
EXTT4=
EXTT5=
EXTT6=
EXTT7=
EXTT8=
EXTT9=
EXTT10=
EXTT11=
EXTT12=
EXTT13=
EXTT14=
EXTT15=
EXTT16=
PLAYORDER=
